<?xml version="1.0" encoding="UTF-8" standalone="no"?>
<svg width="402px" height="120px" viewBox="0 0 402 120" version="1.1" xmlns="http://www.w3.org/2000/svg" xmlns:xlink="http://www.w3.org/1999/xlink">
    <!-- Generator: Sketch 3.6.1 (26313) - http://www.bohemiancoding.com/sketch -->
    <title>Group</title>
    <desc>Created with Sketch.</desc>
    <defs></defs>
    <g id="Page-1" stroke="none" stroke-width="1" fill="none" fill-rule="evenodd">
        <g id="Group">
            <rect id="Rectangle-1" fill="#33C3F0" x="0" y="44.1349343" width="55.4494858" height="36.3899994"></rect>
            <rect id="Rectangle-1" fill="#33C3F0" x="122.292702" y="44.1349343" width="55.4494858" height="36.3899994"></rect>
            <rect id="Rectangle-1" fill="#33C3F0" x="60.7665598" y="0.1171875" width="55.4494858" height="37.3881289"></rect>
            <rect id="Rectangle-1" fill="#33C3F0" x="60.7665598" y="43.6118711" width="55.4494858" height="37.3881289"></rect>
            <rect id="Rectangle-5" fill-opacity="0.9" fill="#33C3F0" x="230" y="44" width="172" height="37"></rect>
            <polygon id="Triangle-1" fill="#FFFFFF" points="88.5 9 96 24 81 24 "></polygon>
            <polygon id="Triangle-1" fill="#FFFFFF" transform="translate(88.500000, 63.500000) scale(-1, -1) translate(-88.500000, -63.500000) " points="88.5 56 96 71 81 71 "></polygon>
            <polygon id="Triangle-1" fill="#FFFFFF" transform="translate(149.500000, 62.500000) rotate(90.000000) translate(-149.500000, -62.500000) " points="149.5 55 157 70 142 70 "></polygon>
            <polygon id="Triangle-1" fill="#FFFFFF" transform="translate(25.224743, 62.500000) rotate(-90.000000) translate(-25.224743, -62.500000) " points="25.2247429 55 32.7247429 70 17.7247429 70 "></polygon>
            <text id="SPACE" font-family="AvenirNextCondensed-Medium, Avenir Next Condensed" font-size="18" font-style="condensed" font-weight="400" fill="#FFFFFF">
                <tspan x="292" y="68">SPACE</tspan>
            </text>
            <text id="MOVEMENT" font-family="AvenirNextCondensed-Medium, Avenir Next Condensed" font-size="18" font-style="condensed" font-weight="400" fill="#000000">
                <tspan x="50" y="118.136805">MOVEMENT</tspan>
            </text>
            <text id="PASSING" font-family="AvenirNextCondensed-Medium, Avenir Next Condensed" font-size="18" font-style="condensed" font-weight="400" fill="#000000">
                <tspan x="284" y="118">PASSING</tspan>
            </text>
        </g>
    </g>
</svg>